<svg xmlns="http://www.w3.org/2000/svg" width="37.634" height="28.667" viewBox="0 0 37.634 28.667"><defs><style>.a{fill:#795818;}</style></defs><g transform="translate(0 0)"><path class="a" d="M34.327,61H3.308A3.313,3.313,0,0,0,0,64.308V86.359a3.313,3.313,0,0,0,3.308,3.308H34.327a3.313,3.313,0,0,0,3.308-3.308V64.308A3.313,3.313,0,0,0,34.327,61Zm-.457,2.205L18.887,78.188,3.775,63.205ZM2.205,85.9V64.754l10.62,10.529Zm1.559,1.559L14.391,76.835l3.724,3.692a1.1,1.1,0,0,0,1.556,0L23.3,76.893,33.87,87.462ZM35.429,85.9,24.86,75.333,35.429,64.764Z" transform="translate(0 -61)"/></g></svg>