<svg xmlns="http://www.w3.org/2000/svg" width="228.704" height="82.955" viewBox="0 0 228.704 82.955"><defs><style>.a{fill:#060704;}.b{fill:#734501;}.c{fill:#ffc600;}.d{fill:#369128;}</style></defs><g transform="translate(-197.416 -263.907)"><g transform="translate(288.931 273.833)"><path class="a" d="M814.356,339q-1.682-.087-5.235-.087-1.238,0-2.012.074-.189.013-.276.013-.256,0-.256-.2a.137.137,0,0,1,.067-.131,1.289,1.289,0,0,1,.33-.078,1.27,1.27,0,0,0,.639-.246,1.011,1.011,0,0,0,.313-.553,11.459,11.459,0,0,0,.1-1.874q.013-1.507.013-3.583a4.276,4.276,0,0,0-.121-1.2,1.082,1.082,0,0,0-.347-.546,1.126,1.126,0,0,0-.636-.192q-.289-.013-.289-.215t.33-.2l2.234.067q.518,0,1.447-.052.336-.015.457-.015.283,0,.283.195a.154.154,0,0,1-.091.151,2.089,2.089,0,0,1-.454.1,1.187,1.187,0,0,0-.636.229.977.977,0,0,0-.249.586,16.354,16.354,0,0,0-.064,1.874V337.2a2.2,2.2,0,0,0,.168,1.122.814.814,0,0,0,.613.179,5.812,5.812,0,0,0,1.643-.172,2.747,2.747,0,0,0,1.027-.622,5.748,5.748,0,0,0,1.047-1.514q.114-.215.234-.215.181,0,.181.2A25.426,25.426,0,0,1,814.356,339Z" transform="translate(-806.577 -329.975)"/><path class="a" d="M872.769,353.075a3.218,3.218,0,0,1-3.264,3.163,3.14,3.14,0,0,1-2.194-.807,2.769,2.769,0,0,1-.888-2.153,2.833,2.833,0,0,1,.939-2.211,3.294,3.294,0,0,1,2.285-.844,3.21,3.21,0,0,1,2.244.8A2.651,2.651,0,0,1,872.769,353.075Zm-1.857.461a5.215,5.215,0,0,0-.367-2q-.367-.893-1.053-.893a1.022,1.022,0,0,0-.935.623,3.794,3.794,0,0,0-.33,1.749,4.693,4.693,0,0,0,.374,2.011,1.143,1.143,0,0,0,1.026.785,1.031,1.031,0,0,0,.962-.627A3.613,3.613,0,0,0,870.912,353.537Z" transform="translate(-857.432 -347.18)"/><path class="a" d="M916.673,340.152q.41-.02,1.258-.02a2.484,2.484,0,0,1,.633.067q-.1.5-.178.538t-1.713.128l-.074,2.968a4.819,4.819,0,0,0,.064.929.9.9,0,0,0,.293.5.861.861,0,0,0,.592.2,2,2,0,0,0,.882-.33.329.329,0,0,1,.148-.047q.128,0,.128.134,0,.2-.545.532a2.385,2.385,0,0,1-1.279.336,2.028,2.028,0,0,1-1.363-.424,2.366,2.366,0,0,1-.495-1.79q0-1.507.054-3.008a8.922,8.922,0,0,1-.942-.034q-.276-.034-.276-.2,0-.135.316-.215a2.918,2.918,0,0,0,1.12-.512,2.841,2.841,0,0,0,.845-1.178,2.972,2.972,0,0,1,.192-.4.167.167,0,0,1,.145-.071q.2,0,.2.323Z" transform="translate(-897.743 -337.016)"/><path class="a" d="M953.247,353.087c0,.13-.007.224-.007.283a2.735,2.735,0,0,0,.468,1.618,1.467,1.467,0,0,0,1.262.663,2.4,2.4,0,0,0,1.6-.707q.161-.142.229-.141.175,0,.175.188,0,.148-.4.532a2.61,2.61,0,0,1-.989.579,3.808,3.808,0,0,1-1.211.2,2.765,2.765,0,0,1-2.927-2.813,3.173,3.173,0,0,1,.892-2.291,2.962,2.962,0,0,1,2.224-.925,2.274,2.274,0,0,1,1.908.841,2.648,2.648,0,0,1,.656,1.6q0,.242-.128.289a3.815,3.815,0,0,1-.828.047Zm.041-.491q1,.014,1.151.013a2.313,2.313,0,0,0,.932-.108.479.479,0,0,0,.172-.437,1.59,1.59,0,0,0-.316-.976.923.923,0,0,0-.754-.424Q953.435,350.664,953.287,352.6Z" transform="translate(-929.68 -347.219)"/><path class="a" d="M998.471,355.363a3.214,3.214,0,0,1-.841.6,2,2,0,0,1-.854.2,1.353,1.353,0,0,1-1.06-.415,1.452,1.452,0,0,1-.373-1.008,1.516,1.516,0,0,1,.225-.819,1.66,1.66,0,0,1,.557-.559,6.873,6.873,0,0,1,1.1-.475,5.559,5.559,0,0,0,.863-.361,1.061,1.061,0,0,0,.366-.384,1.285,1.285,0,0,0,.148-.654,1.066,1.066,0,0,0-.221-.707.752.752,0,0,0-.61-.265.592.592,0,0,0-.476.168,1.287,1.287,0,0,0-.214.556q-.155.764-.828.764a.714.714,0,0,1-.471-.161.569.569,0,0,1-.2-.464,1.03,1.03,0,0,1,.7-.966,4.034,4.034,0,0,1,1.679-.32,3.153,3.153,0,0,1,1.369.256,1.318,1.318,0,0,1,.676.592,2.773,2.773,0,0,1,.148,1.05l-.014,1.6a9.21,9.21,0,0,0,.084,1.615q.084.357.36.357c.027,0,.063,0,.108-.007q.134-.014.182-.014.276,0,.276.155a.2.2,0,0,1-.115.172,2.874,2.874,0,0,1-.69.178,5.714,5.714,0,0,1-1.04.108.882.882,0,0,1-.636-.177A.968.968,0,0,1,998.471,355.363Zm.087-2.7a2.849,2.849,0,0,1-.774.519,2.57,2.57,0,0,0-.747.526,1.07,1.07,0,0,0-.188.681,1.123,1.123,0,0,0,.2.718.6.6,0,0,0,.488.246.988.988,0,0,0,.727-.361,1.865,1.865,0,0,0,.336-1.272Q998.6,353.44,998.559,352.665Z" transform="translate(-966.984 -347.066)"/><path class="a" d="M1039.5,351.137a3.7,3.7,0,0,1,.98-.784,2.153,2.153,0,0,1,1.007-.259,2.233,2.233,0,0,1,.768.148,2.354,2.354,0,0,1,.882.693,3.623,3.623,0,0,1,.995-.636,2.713,2.713,0,0,1,1.049-.212,1.692,1.692,0,0,1,1.352.5,2.279,2.279,0,0,1,.424,1.5l-.033,2.277a3.347,3.347,0,0,0,.093,1.108q.093.145.507.206.234.04.234.182,0,.208-.275.209c-.031,0-.076,0-.134-.008q-.564-.053-1.229-.053-.363,0-.873.038c-.211.015-.331.023-.363.023q-.336,0-.336-.188,0-.168.222-.2a1.049,1.049,0,0,0,.471-.135,1.332,1.332,0,0,0,.134-.623q.047-.542.047-1.83a14.062,14.062,0,0,0-.061-1.617,1.2,1.2,0,0,0-.276-.671.7.7,0,0,0-.538-.232,1,1,0,0,0-.589.219,2.882,2.882,0,0,0-.616.663,16.3,16.3,0,0,0-.209,3,2.353,2.353,0,0,0,.121,1,.755.755,0,0,0,.552.223q.256.027.256.175,0,.208-.323.209-.074,0-.518-.03-.612-.038-.868-.038-.437,0-1.036.052-.155.015-.236.015-.3,0-.3-.2,0-.175.289-.2a.505.505,0,0,0,.485-.428,19.971,19.971,0,0,0,.1-2.807,3.622,3.622,0,0,0-.175-1.365.592.592,0,0,0-.572-.374,1.2,1.2,0,0,0-1.083.727,6.634,6.634,0,0,0-.4,2.81,3.27,3.27,0,0,0,.124,1.2.529.529,0,0,0,.468.239q.256.014.256.175,0,.215-.276.215a1.371,1.371,0,0,1-.188-.022,10.832,10.832,0,0,0-1.2-.045,9.792,9.792,0,0,0-1.164.052q-.161.015-.242.015-.222,0-.222-.2t.249-.2q.4-.02.5-.141a1.637,1.637,0,0,0,.141-.677q.047-.556.047-2.092,0-1.2-.03-1.5a.667.667,0,0,0-.222-.465.823.823,0,0,0-.529-.168q-.276-.007-.276-.182t.276-.188q.357-.02,1.057-.091t1.211-.071a1.847,1.847,0,0,1,.081.646Q1039.492,350.854,1039.5,351.137Z" transform="translate(-1002.27 -347.066)"/><path class="a" d="M1116.614,353.087q-.006.2-.007.283a2.736,2.736,0,0,0,.468,1.618,1.467,1.467,0,0,0,1.262.663,2.4,2.4,0,0,0,1.6-.707q.162-.142.229-.141.175,0,.175.188,0,.148-.4.532a2.609,2.609,0,0,1-.989.579,3.807,3.807,0,0,1-1.211.2,2.765,2.765,0,0,1-2.927-2.813,3.173,3.173,0,0,1,.892-2.291,2.962,2.962,0,0,1,2.224-.925,2.274,2.274,0,0,1,1.908.841,2.649,2.649,0,0,1,.656,1.6q0,.242-.128.289a3.818,3.818,0,0,1-.828.047Zm.041-.491q1,.014,1.151.013a2.312,2.312,0,0,0,.932-.108.479.479,0,0,0,.172-.437,1.588,1.588,0,0,0-.316-.976.923.923,0,0,0-.754-.424Q1116.8,350.664,1116.655,352.6Z" transform="translate(-1068.505 -347.219)"/><path class="a" d="M1158.765,351.4a3.4,3.4,0,0,1,.993-.969,2.181,2.181,0,0,1,1.147-.323,1.742,1.742,0,0,1,.935.262,1.37,1.37,0,0,1,.575.626,2.762,2.762,0,0,1,.152,1.03l-.061,2.685a1.735,1.735,0,0,0,.1.734.554.554,0,0,0,.424.236q.269.047.269.215t-.263.175q-.222,0-.976-.054-.262-.014-.424-.013t-.888.067h-.33q-.276,0-.276-.182,0-.148.249-.2a.849.849,0,0,0,.363-.155q.135-.108.178-1.058t.044-1.887a4.1,4.1,0,0,0-.165-1.422.621.621,0,0,0-.629-.384q-.572,0-1.06.838a5.27,5.27,0,0,0-.488,2.574,5,5,0,0,0,.067.976.706.706,0,0,0,.165.38,1.016,1.016,0,0,0,.414.131q.189.034.188.2,0,.188-.276.188c-.09,0-.188,0-.3-.012q-.646-.055-.7-.055a15.207,15.207,0,0,0-1.588.067,1.308,1.308,0,0,1-.162.014q-.249,0-.249-.2,0-.168.222-.2a.69.69,0,0,0,.464-.189,2.223,2.223,0,0,0,.178-.927q.057-.778.057-1.856a8.124,8.124,0,0,0-.1-1.7.746.746,0,0,0-.485-.475q-.276-.107-.276-.209,0-.162.4-.162a15.018,15.018,0,0,0,1.81-.087A3.776,3.776,0,0,1,1158.765,351.4Z" transform="translate(-1103.677 -347.066)"/><path class="a" d="M1209,340.152q.411-.02,1.259-.02a2.485,2.485,0,0,1,.633.067q-.1.5-.178.538t-1.713.128l-.074,2.968a4.819,4.819,0,0,0,.064.929.9.9,0,0,0,.293.5.862.862,0,0,0,.592.2,2,2,0,0,0,.882-.33.329.329,0,0,1,.148-.047q.127,0,.128.134,0,.2-.545.532a2.385,2.385,0,0,1-1.279.336,2.027,2.027,0,0,1-1.363-.424,2.365,2.365,0,0,1-.495-1.79q0-1.507.054-3.008a8.93,8.93,0,0,1-.942-.034q-.276-.034-.276-.2,0-.135.316-.215a2.921,2.921,0,0,0,1.12-.512,2.843,2.843,0,0,0,.844-1.178,3.017,3.017,0,0,1,.192-.4.167.167,0,0,1,.145-.071q.2,0,.2.323Z" transform="translate(-1146.158 -337.016)"/><path class="a" d="M1250.12,353.075a3.218,3.218,0,0,1-3.264,3.163,3.14,3.14,0,0,1-2.194-.807,2.768,2.768,0,0,1-.889-2.153,2.833,2.833,0,0,1,.939-2.211,3.3,3.3,0,0,1,2.285-.844,3.21,3.21,0,0,1,2.244.8A2.651,2.651,0,0,1,1250.12,353.075Zm-1.858.461a5.216,5.216,0,0,0-.367-2q-.367-.893-1.053-.893a1.022,1.022,0,0,0-.935.623,3.793,3.793,0,0,0-.33,1.749,4.69,4.69,0,0,0,.374,2.011,1.143,1.143,0,0,0,1.026.785,1.031,1.031,0,0,0,.962-.627A3.609,3.609,0,0,0,1248.263,353.537Z" transform="translate(-1178.094 -347.18)"/></g><g transform="translate(287.386 285.971)"><path class="b" d="M802.9,410.89q8,9.1,13.346,14.6.017-1.135.017-1.468l.017-6.607a14.626,14.626,0,0,0-.267-3.345,2.693,2.693,0,0,0-1.136-1.593,4.21,4.21,0,0,0-2.021-.684q-.618-.067-.618-.518,0-.484.568-.484a7.109,7.109,0,0,1,.818.061,27.121,27.121,0,0,0,2.79.106q2.305,0,3.508-.122.5-.045.852-.046.635,0,.635.484,0,.468-.852.551a3.478,3.478,0,0,0-1.963.885q-.911.785-.91,3.088l.083,9.448-.117,7.111q0,.918-.568.918a.807.807,0,0,1-.351-.1,30.1,30.1,0,0,1-2.3-2.314q-2.1-2.213-6.231-6.866t-5.805-6.674q-.034.451-.034,8.4a27.464,27.464,0,0,0,.209,3.851,2.635,2.635,0,0,0,1.3,2.021,4.068,4.068,0,0,0,1.979.626q.568,0,.568.434,0,.5-.6.5a8.876,8.876,0,0,1-.969-.067,19.92,19.92,0,0,0-2.556-.134,30.368,30.368,0,0,0-3.608.15,9.751,9.751,0,0,1-1,.084q-.652,0-.651-.551,0-.4,1.052-.485,1.888-.15,2.364-1.3a8.424,8.424,0,0,0,.476-3.141q0-8.62-.092-10.541a6.378,6.378,0,0,0-1.2-3.475,4.266,4.266,0,0,0-2.681-1.854q-.651-.117-.652-.518,0-.551.685-.551.167,0,.484.034.385.034,1.387.033Q801.025,410.84,802.9,410.89Z" transform="translate(-796.296 -410.773)"/><path class="b" d="M992.08,468.118a7.988,7.988,0,0,1-8.1,7.852,7.8,7.8,0,0,1-5.446-2,6.873,6.873,0,0,1-2.205-5.346,7.032,7.032,0,0,1,2.331-5.488,8.177,8.177,0,0,1,5.672-2.1,7.969,7.969,0,0,1,5.571,1.98A6.579,6.579,0,0,1,992.08,468.118Zm-4.611,1.145a12.946,12.946,0,0,0-.91-4.96q-.911-2.216-2.614-2.216a2.538,2.538,0,0,0-2.322,1.547,9.417,9.417,0,0,0-.818,4.341,11.65,11.65,0,0,0,.927,4.993,2.837,2.837,0,0,0,2.548,1.948,2.56,2.56,0,0,0,2.389-1.556A8.967,8.967,0,0,0,987.47,469.264Z" transform="translate(-949.281 -453.484)"/><path class="b" d="M1098.223,472.737q1.082-2.322,2.016-4.886a14.192,14.192,0,0,0,.933-3.19.875.875,0,0,0-.769-.878q-.735-.2-.735-.551,0-.417.6-.418.3,0,1.236.093.852.074,1.186.074a7.924,7.924,0,0,0,1.37-.111,3.745,3.745,0,0,1,.551-.056q.518,0,.518.484,0,.363-.7.484-1.587.249-2.639,2.923-1.2,3.057-2.292,5.663t-1.675,3.767a6.864,6.864,0,0,1-.708,1.253.508.508,0,0,1-.308.092q-.221,0-.425-.317t-1.725-3.358l-3.86-7.684a6.709,6.709,0,0,0-1.27-1.966,2.33,2.33,0,0,0-.752-.406q-.652-.151-.652-.468,0-.467.635-.468.267,0,.835.046,1.353.121,2.64.121.517,0,1.169-.045,1.186-.1,1.42-.105,1.1,0,1.1.384,0,.468-.618.535-.869.082-.869.8a17.842,17.842,0,0,0,1.406,3.441Q1097.251,471,1098.223,472.737Z" transform="translate(-1044.282 -454.996)"/><path class="b" d="M1210.923,473.8a7.967,7.967,0,0,1-2.088,1.478,4.966,4.966,0,0,1-2.122.493,3.359,3.359,0,0,1-2.631-1.029,3.6,3.6,0,0,1-.927-2.5,3.763,3.763,0,0,1,.559-2.033,4.122,4.122,0,0,1,1.384-1.389,17.087,17.087,0,0,1,2.726-1.18,13.849,13.849,0,0,0,2.142-.9,2.635,2.635,0,0,0,.909-.953,3.188,3.188,0,0,0,.367-1.624,2.645,2.645,0,0,0-.549-1.754,1.866,1.866,0,0,0-1.513-.657,1.467,1.467,0,0,0-1.181.416,3.189,3.189,0,0,0-.532,1.38q-.385,1.9-2.055,1.9a1.773,1.773,0,0,1-1.169-.4,1.41,1.41,0,0,1-.485-1.153,2.558,2.558,0,0,1,1.746-2.4,10.014,10.014,0,0,1,4.168-.793,7.831,7.831,0,0,1,3.4.635,3.27,3.27,0,0,1,1.679,1.47,6.885,6.885,0,0,1,.367,2.606l-.033,3.959a22.961,22.961,0,0,0,.208,4.009q.209.885.894.885c.067,0,.156-.005.267-.017q.334-.033.451-.034.685,0,.685.384a.5.5,0,0,1-.284.426,7.148,7.148,0,0,1-1.712.443,14.161,14.161,0,0,1-2.581.267,2.186,2.186,0,0,1-1.578-.439A2.4,2.4,0,0,1,1210.923,473.8Zm.217-6.7a7.061,7.061,0,0,1-1.921,1.289,6.375,6.375,0,0,0-1.854,1.306,2.659,2.659,0,0,0-.468,1.691,2.787,2.787,0,0,0,.493,1.784,1.5,1.5,0,0,0,1.211.611,2.453,2.453,0,0,0,1.8-.9,4.632,4.632,0,0,0,.835-3.157Q1211.24,469.026,1211.14,467.1Z" transform="translate(-1142.032 -453.201)"/></g><g transform="translate(287.737 310.363)"><path class="b" d="M806.631,577.693q.435,1.036,1.606,3.283t2.317,4.561q1.145,2.314,2.584,4.87,1.154,2.022,1.3,2.372,4.185-9.372,6.336-15.085,4.011,0,7.4-.2.318-.016.468-.017.685,0,.685.535,0,.468-.535.468a2.457,2.457,0,0,0-2.5,1.295q-.593,1.295-.593,6.306l-.017,8.186a6.75,6.75,0,0,0,.66,3.508,2.487,2.487,0,0,0,2.147,1.053q.718.017.718.484a.484.484,0,0,1-.3.417l-4.687-.033q-2.152,0-5.888.167a.594.594,0,0,1-.317-.468q0-.384.864-.518a3.119,3.119,0,0,0,1.271-.435,1.825,1.825,0,0,0,.59-1.053,9.61,9.61,0,0,0,.2-2.257l.066-7.474q0-5.735.017-6.6-4.537,10.558-5.621,13.482l-1.685,4.527q-.284.718-.569.718-.3,0-.719-.885-1.221-2.572-8.713-16.989-.084,4.147-.083,11.187a15.563,15.563,0,0,0,.418,4.691q.417.978,2.339,1.145.635.067.635.468,0,.434-.518.434-.184,0-.4-.019-2-.149-2.873-.149a28.587,28.587,0,0,0-3.592.167,2.758,2.758,0,0,1-.351.033q-.585,0-.585-.484a.358.358,0,0,1,.142-.326,3.039,3.039,0,0,1,.76-.225,2.881,2.881,0,0,0,2.1-1.154,5.872,5.872,0,0,0,.493-2.792l.083-9.547a34.6,34.6,0,0,0-.167-4.313,2.608,2.608,0,0,0-.819-1.622,4.575,4.575,0,0,0-2.122-.853q-.552-.117-.551-.551,0-.468.6-.468.133,0,.367.019Q801.3,577.693,806.631,577.693Z" transform="translate(-798.631 -576.824)"/><path class="b" d="M1024.349,640.5a7.969,7.969,0,0,1-2.088,1.478,4.966,4.966,0,0,1-2.122.493,3.36,3.36,0,0,1-2.631-1.029,3.6,3.6,0,0,1-.927-2.5,3.764,3.764,0,0,1,.558-2.033,4.126,4.126,0,0,1,1.384-1.389,17.1,17.1,0,0,1,2.726-1.18,13.841,13.841,0,0,0,2.142-.9,2.634,2.634,0,0,0,.909-.953,3.189,3.189,0,0,0,.367-1.624,2.647,2.647,0,0,0-.549-1.754,1.866,1.866,0,0,0-1.513-.657,1.467,1.467,0,0,0-1.181.416,3.194,3.194,0,0,0-.532,1.38q-.385,1.9-2.055,1.9a1.773,1.773,0,0,1-1.169-.4,1.41,1.41,0,0,1-.485-1.153,2.557,2.557,0,0,1,1.746-2.4,10.013,10.013,0,0,1,4.168-.794,7.833,7.833,0,0,1,3.4.635,3.272,3.272,0,0,1,1.679,1.47,6.882,6.882,0,0,1,.367,2.606l-.033,3.959a22.926,22.926,0,0,0,.209,4.009q.209.885.894.885.1,0,.267-.017.334-.033.451-.033.685,0,.685.384a.5.5,0,0,1-.284.426,7.144,7.144,0,0,1-1.712.443,14.161,14.161,0,0,1-2.581.267,2.187,2.187,0,0,1-1.578-.439A2.4,2.4,0,0,1,1024.349,640.5Zm.217-6.7a7.059,7.059,0,0,1-1.921,1.289,6.378,6.378,0,0,0-1.854,1.306,2.657,2.657,0,0,0-.468,1.691,2.787,2.787,0,0,0,.493,1.784,1.5,1.5,0,0,0,1.211.611,2.453,2.453,0,0,0,1.8-.9,4.632,4.632,0,0,0,.835-3.157Q1024.666,635.727,1024.566,633.8Z" transform="translate(-983.838 -619.251)"/><path class="b" d="M1125.065,630.873a7.069,7.069,0,0,1,1.921-2.523,3.877,3.877,0,0,1,2.422-.835,2.8,2.8,0,0,1,2.03.735,2.453,2.453,0,0,1,.76,1.838,2.146,2.146,0,0,1-.543,1.478,1.711,1.711,0,0,1-1.328.61,1.525,1.525,0,0,1-.969-.3,3.651,3.651,0,0,1-.818-1.069q-.6-1.1-1.052-1.1-.618,0-1.4,1.251t-.785,4.855q0,4.554.309,5.063t1.361.509q.918,0,.919.5,0,.467-.9.468-.5,0-1.453-.091-.869-.076-1.637-.076-1.654,0-3.274.117-.685.05-.8.05-.7,0-.7-.526,0-.458.819-.492a1.582,1.582,0,0,0,1.119-.375,2.365,2.365,0,0,0,.317-1.493l.067-4.171q0-1.268-.1-3.153a20.822,20.822,0,0,0-.184-2.244,1.185,1.185,0,0,0-.426-.642,1.641,1.641,0,0,0-.927-.334,2.429,2.429,0,0,1-.76-.159.4.4,0,0,1-.159-.376q0-.451.835-.468,1.537-.017,5.229-.4Z" transform="translate(-1070.772 -619.346)"/><path class="b" d="M1219.812,634.848q-.017.485-.017.7a6.789,6.789,0,0,0,1.161,4.018,3.642,3.642,0,0,0,3.132,1.646,5.96,5.96,0,0,0,3.976-1.754q.4-.351.568-.351.434,0,.434.468,0,.368-1,1.32a6.483,6.483,0,0,1-2.456,1.437,9.452,9.452,0,0,1-3.007.484,6.864,6.864,0,0,1-7.267-6.983,7.878,7.878,0,0,1,2.213-5.688,7.354,7.354,0,0,1,5.521-2.3,5.645,5.645,0,0,1,4.736,2.088,6.576,6.576,0,0,1,1.629,3.976q0,.6-.318.718a9.492,9.492,0,0,1-2.055.117Zm.1-1.219q2.472.034,2.856.034a5.746,5.746,0,0,0,2.314-.267,1.189,1.189,0,0,0,.426-1.086,3.944,3.944,0,0,0-.785-2.422,2.291,2.291,0,0,0-1.871-1.053Q1220.28,628.834,1219.912,633.629Z" transform="translate(-1152.733 -619.63)"/><path class="b" d="M1324.755,635.021a7.479,7.479,0,0,1,2.155-5.379,7.2,7.2,0,0,1,5.413-2.239,6.911,6.911,0,0,1,3.767,1.027,2.911,2.911,0,0,1,1.629,2.431,1.739,1.739,0,0,1-.493,1.311,1.72,1.72,0,0,1-1.245.476q-1.437,0-2.055-2.08a4.755,4.755,0,0,0-.735-1.627,1.5,1.5,0,0,0-1.2-.486,2.209,2.209,0,0,0-2.063,1.372,9.456,9.456,0,0,0-.693,4.115,9.665,9.665,0,0,0,1.136,5.027,3.367,3.367,0,0,0,2.942,1.882q2.407,0,3.393-2.857.318-.9.752-.9.468,0,.468.5a4.984,4.984,0,0,1-1.479,3.149,5.552,5.552,0,0,1-4.42,1.7,6.964,6.964,0,0,1-5.247-2.1A7.351,7.351,0,0,1,1324.755,635.021Z" transform="translate(-1245.715 -619.251)"/><path class="b" d="M1429.529,573.473q-.067,1.671-.067,2.873l.017,4.46q0,2.874.05,3.525a6.944,6.944,0,0,1,2.2-2.03,5.369,5.369,0,0,1,2.665-.677,4.778,4.778,0,0,1,2.222.544,3.639,3.639,0,0,1,1.629,1.806,11.731,11.731,0,0,1,.577,4.407l-.05,5.252q0,1.723,1.353,1.857.534.05.535.451,0,.484-.568.484a4.5,4.5,0,0,1-.451-.034,33.251,33.251,0,0,0-3.458-.134q-.384,0-1.386.1-.7.067-1.219.067-.685,0-.685-.451,0-.384.768-.5a1.156,1.156,0,0,0,.986-.953,31.668,31.668,0,0,0,.217-5.068,20.082,20.082,0,0,0-.393-5.052,1.557,1.557,0,0,0-1.6-1.188,2.775,2.775,0,0,0-1.971,1.009,5.179,5.179,0,0,0-1.27,2.811,27.59,27.59,0,0,0-.3,4.438,18.149,18.149,0,0,0,.134,2.361,2.544,2.544,0,0,0,.376,1.26,1.411,1.411,0,0,0,.827.334q.635.067.635.535,0,.434-.718.434-.535,0-1.554-.091-.836-.076-1.487-.076a21.09,21.09,0,0,0-2.456.134,13.254,13.254,0,0,1-1.487.067q-.485,0-.484-.468,0-.384.685-.485a1.418,1.418,0,0,0,1.178-.71,16.336,16.336,0,0,0,.443-4.4q.117-3.792.117-11.594a8.152,8.152,0,0,0-.368-3.1,2.026,2.026,0,0,0-1.236-.994q-.835-.267-.835-.618,0-.451.718-.451Q1426.371,573.606,1429.529,573.473Z" transform="translate(-1329.283 -573.423)"/><path class="b" d="M1561.634,640.5a7.967,7.967,0,0,1-2.088,1.478,4.965,4.965,0,0,1-2.121.493,3.36,3.36,0,0,1-2.631-1.029,3.605,3.605,0,0,1-.927-2.5,3.763,3.763,0,0,1,.558-2.033,4.127,4.127,0,0,1,1.384-1.389,17.093,17.093,0,0,1,2.726-1.18,13.843,13.843,0,0,0,2.142-.9,2.632,2.632,0,0,0,.909-.953,3.187,3.187,0,0,0,.367-1.624,2.646,2.646,0,0,0-.549-1.754,1.866,1.866,0,0,0-1.513-.657,1.467,1.467,0,0,0-1.181.416,3.187,3.187,0,0,0-.532,1.38q-.385,1.9-2.055,1.9a1.773,1.773,0,0,1-1.169-.4,1.41,1.41,0,0,1-.485-1.153,2.557,2.557,0,0,1,1.746-2.4,10.012,10.012,0,0,1,4.168-.794,7.833,7.833,0,0,1,3.4.635,3.269,3.269,0,0,1,1.679,1.47,6.879,6.879,0,0,1,.368,2.606l-.033,3.959a22.957,22.957,0,0,0,.209,4.009q.209.885.894.885.1,0,.267-.017.334-.033.451-.033.685,0,.685.384a.5.5,0,0,1-.284.426,7.139,7.139,0,0,1-1.712.443,14.161,14.161,0,0,1-2.581.267,2.188,2.188,0,0,1-1.578-.439A2.4,2.4,0,0,1,1561.634,640.5Zm.217-6.7a7.058,7.058,0,0,1-1.921,1.289,6.376,6.376,0,0,0-1.854,1.306,2.658,2.658,0,0,0-.468,1.691,2.787,2.787,0,0,0,.493,1.784,1.5,1.5,0,0,0,1.211.611,2.453,2.453,0,0,0,1.8-.9,4.632,4.632,0,0,0,.835-3.157Q1561.952,635.727,1561.851,633.8Z" transform="translate(-1440.407 -619.251)"/><path class="b" d="M1661.874,573.139l.05,14.016q.016,6.715.351,7.334a1.468,1.468,0,0,0,1.336.668q1.169.05,1.169.468,0,.518-.718.518-.2,0-.584-.034-1.62-.134-3.141-.134-2.472,0-3.658.13a5.564,5.564,0,0,1-.6.037q-.752,0-.752-.451,0-.434.852-.484a2.756,2.756,0,0,0,1.345-.334,1.166,1.166,0,0,0,.518-.794,18.149,18.149,0,0,0,.092-2.383l-.067-6.571.05-5.217a13.878,13.878,0,0,0-.309-3.937q-.309-.694-1.829-.945-.919-.134-.918-.534a.341.341,0,0,1,.208-.343,4.227,4.227,0,0,1,1.028-.159A33.4,33.4,0,0,0,1661.874,573.139Z" transform="translate(-1526.397 -573.139)"/></g><g transform="translate(197.416 263.907)"><path class="b" d="M386.706,470.272q.41.978,1.516,3.1t2.187,4.3q1.081,2.184,2.439,4.6,1.089,1.908,1.231,2.239,3.95-8.845,5.98-14.237,3.785,0,6.987-.189.3-.015.442-.016.646,0,.647.5,0,.441-.5.441a2.32,2.32,0,0,0-2.357,1.222q-.559,1.222-.56,5.952l-.016,7.725a6.371,6.371,0,0,0,.623,3.311,2.347,2.347,0,0,0,2.026.993q.678.016.678.457a.457.457,0,0,1-.283.394l-4.424-.031q-2.031,0-5.557.158a.56.56,0,0,1-.3-.441q0-.363.815-.489a2.942,2.942,0,0,0,1.2-.411,1.722,1.722,0,0,0,.557-.994,9.062,9.062,0,0,0,.188-2.13l.063-7.054q0-5.413.016-6.234-4.282,9.965-5.3,12.723l-1.59,4.273q-.268.678-.537.678-.284,0-.679-.836-1.152-2.428-8.224-16.034-.079,3.914-.079,10.558a14.684,14.684,0,0,0,.394,4.427q.394.923,2.207,1.081.6.063.6.442,0,.41-.489.41-.174,0-.378-.018-1.892-.14-2.712-.14a26.962,26.962,0,0,0-3.39.158,2.59,2.59,0,0,1-.331.031q-.552,0-.552-.457a.338.338,0,0,1,.134-.307,2.877,2.877,0,0,1,.717-.213,2.718,2.718,0,0,0,1.979-1.089,5.543,5.543,0,0,0,.465-2.635l.079-9.01a32.677,32.677,0,0,0-.158-4.071,2.463,2.463,0,0,0-.772-1.531,4.319,4.319,0,0,0-2-.8q-.52-.11-.52-.52,0-.441.567-.442.126,0,.347.018,1.608.14,6.636.14" transform="translate(-351.853 -439.096)"/><path class="c" d="M334.484,371.574a25.21,25.21,0,1,0,25.21,25.21,25.21,25.21,0,0,0-25.21-25.21m0,44.469a19.259,19.259,0,1,1,19.259-19.26,19.259,19.259,0,0,1-19.259,19.26" transform="translate(-292.47 -355.399)"/><path class="d" d="M309.987,342.746a29.541,29.541,0,1,0,29.541,29.54,29.54,29.54,0,0,0-29.541-29.54m0,56.238a26.7,26.7,0,1,1,26.7-26.7,26.7,26.7,0,0,1-26.7,26.7" transform="translate(-267.972 -330.902)"/><path class="d" d="M535.733,317.856s8.347-7.286,10.649-16.148c2.6-9.993,2.47-16.462-1.118-23.691a19.392,19.392,0,0,0-23.989-9.531A21.477,21.477,0,0,1,528.13,274c2.2,2.57,4.445,5.408,9.157,4.337-.857-2.784-1.874-5.033-8.246-7.282,2.731-.214,10.442-.589,11.727,8.942-1.874.91-7.6,3.748-13.655-3s-7.015-7.175-10.977-7.39a19.587,19.587,0,0,1,19.705-3.588,22.087,22.087,0,0,1,15.332,18.242c.661,4.953,3.106,24.061-21.646,43.338a97.338,97.338,0,0,0,6.206-9.746" transform="translate(-468.254 -264.673)"/><path class="d" d="M250.31,279.141s-7.461-8.191-16.369-10.306c-10.046-2.385-16.511-2.121-23.663,1.618a19.392,19.392,0,0,0-9.022,24.185,21.474,21.474,0,0,1,5.369-6.969c2.523-2.249,5.313-4.558,4.143-9.246-2.766.915-4.993,1.98-7.107,8.4-.272-2.726-.809-10.427,8.693-11.913.95,1.854,3.908,7.523-2.709,13.715s-7.026,7.165-7.156,11.131a19.588,19.588,0,0,1-4-19.625A22.087,22.087,0,0,1,216.4,264.415c4.938-.766,23.99-3.614,43.786,20.725a97.329,97.329,0,0,0-9.875-6" transform="translate(-197.416 -263.908)"/><path class="d" d="M215.646,406.961S207.3,414.247,205,423.109c-2.6,9.993-2.47,16.462,1.118,23.691a19.392,19.392,0,0,0,23.989,9.531,21.476,21.476,0,0,1-6.854-5.515c-2.2-2.57-4.444-5.408-9.157-4.337.857,2.784,1.874,5.033,8.246,7.282-2.731.214-10.442.589-11.727-8.942,1.874-.91,7.6-3.748,13.655,3s7.015,7.175,10.977,7.389a19.588,19.588,0,0,1-19.706,3.588,22.087,22.087,0,0,1-15.332-18.242c-.661-4.953-3.106-24.061,21.646-43.338a97.34,97.34,0,0,0-6.206,9.746" transform="translate(-199.459 -377.188)"/><path class="d" d="M346.405,598.091s7.461,8.191,16.369,10.306c10.046,2.385,16.511,2.122,23.663-1.618a19.392,19.392,0,0,0,9.022-24.185,21.474,21.474,0,0,1-5.369,6.969c-2.523,2.249-5.313,4.558-4.143,9.246,2.766-.915,4.993-1.98,7.107-8.4.272,2.726.809,10.427-8.693,11.913-.95-1.855-3.908-7.523,2.709-13.715s7.026-7.165,7.156-11.131a19.588,19.588,0,0,1,4,19.625,22.087,22.087,0,0,1-17.914,15.714c-4.938.766-23.99,3.614-43.785-20.725a97.317,97.317,0,0,0,9.874,6" transform="translate(-315.632 -530.369)"/></g></g></svg>