<svg xmlns="http://www.w3.org/2000/svg" width="37.958" height="38.014" viewBox="0 0 37.958 38.014"><defs><style>.a{fill:#795818;}</style></defs><g transform="translate(0 0)"><path class="a" d="M30.36,48.755a3.739,3.739,0,0,0-2.712-1.244A3.866,3.866,0,0,0,24.9,48.747l-2.535,2.527c-.209-.112-.417-.217-.618-.321-.289-.144-.562-.281-.794-.425a27.555,27.555,0,0,1-6.6-6.017,16.256,16.256,0,0,1-2.166-3.418c.658-.6,1.268-1.228,1.861-1.829.225-.225.449-.457.674-.682a3.681,3.681,0,0,0,0-5.552l-2.19-2.19c-.249-.249-.505-.505-.746-.762-.481-.5-.987-1.011-1.508-1.492A3.8,3.8,0,0,0,7.59,27.406a3.93,3.93,0,0,0-2.728,1.179l-.016.016L2.118,31.353A5.87,5.87,0,0,0,.377,35.084,14.065,14.065,0,0,0,1.4,41.037,34.545,34.545,0,0,0,7.542,51.275a37.756,37.756,0,0,0,12.572,9.844,19.588,19.588,0,0,0,7.06,2.086c.168.008.345.016.505.016a6.046,6.046,0,0,0,4.629-1.99c.008-.016.024-.024.032-.04a18.238,18.238,0,0,1,1.4-1.452c.345-.329.7-.674,1.043-1.035A4,4,0,0,0,36,55.928a3.856,3.856,0,0,0-1.236-2.752ZM33.232,57.2c-.008,0-.008.008,0,0-.313.337-.634.642-.979.979a21.093,21.093,0,0,0-1.548,1.6,3.868,3.868,0,0,1-3.017,1.276c-.12,0-.249,0-.369-.008a17.4,17.4,0,0,1-6.258-1.877A35.639,35.639,0,0,1,9.219,49.9a32.572,32.572,0,0,1-5.777-9.62,11.456,11.456,0,0,1-.9-5.022,3.683,3.683,0,0,1,1.107-2.383l2.736-2.736a1.824,1.824,0,0,1,1.22-.57,1.716,1.716,0,0,1,1.171.562l.024.024c.489.457.955.931,1.444,1.436.249.257.505.513.762.778l2.19,2.19a1.531,1.531,0,0,1,0,2.487c-.233.233-.457.465-.69.69-.674.69-1.316,1.332-2.014,1.958-.016.016-.032.024-.04.04a1.636,1.636,0,0,0-.417,1.821l.024.072a17.585,17.585,0,0,0,2.591,4.228l.008.008a29.448,29.448,0,0,0,7.124,6.483,10.956,10.956,0,0,0,.987.538c.289.144.562.281.794.425.032.016.064.04.1.056a1.739,1.739,0,0,0,.794.2,1.715,1.715,0,0,0,1.22-.554l2.744-2.744a1.815,1.815,0,0,1,1.211-.6,1.634,1.634,0,0,1,1.155.586l.016.016,4.421,4.421A1.586,1.586,0,0,1,33.232,57.2Z" transform="translate(-0.344 -25.207)"/><path class="a" d="M245.835,88.074a10.325,10.325,0,0,1,8.408,8.408,1.076,1.076,0,0,0,1.067.9,1.433,1.433,0,0,0,.185-.016,1.084,1.084,0,0,0,.891-1.252A12.485,12.485,0,0,0,246.212,85.94a1.089,1.089,0,0,0-1.252.883A1.071,1.071,0,0,0,245.835,88.074Z" transform="translate(-225.319 -79.031)"/><path class="a" d="M266.786,16.769A20.559,20.559,0,0,0,250.033.017a1.082,1.082,0,1,0-.353,2.134,18.363,18.363,0,0,1,14.971,14.971,1.076,1.076,0,0,0,1.067.9A1.433,1.433,0,0,0,265.9,18,1.063,1.063,0,0,0,266.786,16.769Z" transform="translate(-228.844 0)"/></g></svg>